<svg xmlns="http://www.w3.org/2000/svg" viewBox="0 0 39.52 39.52"><defs><style>.cls-1{fill:#fff;}.cls-2{fill:#31469b;}</style></defs><title>icon-list-05c</title><g id="圖層_2" data-name="圖層 2"><g id="圖層_1-2" data-name="圖層 1"><path class="cls-1" d="M6.66,6.72V32.86H32.81V6.71Zm.76,25.43V27.57h2.81a1.43,1.43,0,1,0,0-.35H7.41V25.05h8.47c.06,0,1.57.07,1.57,2v5.12Zm20.64,0V29.28H27.7v2.83H26V27.34a1.43,1.43,0,1,0-.36,0v4.77h-2V28.33h-.35v3.79h-5.5V27a2.13,2.13,0,0,0-1.88-2.34H7.41v-2H19.67a1.41,1.41,0,0,0,1.41,1.24,1.42,1.42,0,0,0,0-2.84,1.41,1.41,0,0,0-1.4,1.25H7.42V19.19H17.73a2.94,2.94,0,0,0,1.91-.74,2.54,2.54,0,0,0,.7-1.91v-2.1a1.43,1.43,0,1,0-.35,0v2.1a2.19,2.19,0,0,1-.6,1.65,2.6,2.6,0,0,1-1.68.64H7.4V14h4.2v-.4H7.38V11.32h5.4a1.43,1.43,0,1,0,0-.36H7.38V7.42H32.11v4h-4v.35h4V15.1h-5.4a1.43,1.43,0,1,0,0,.35h5.41V32.13Z"/><path class="cls-2" d="M26.71,15.43a1.43,1.43,0,1,1,0-.35h5.41V11.74h-4V11.4h4v-4H7.39V11h5.4a1.42,1.42,0,1,1,0,.36H7.38V13.6H11.6V14H7.38v4.87H17.69a2.6,2.6,0,0,0,1.68-.64,2.19,2.19,0,0,0,.6-1.65v-2.1a1.42,1.42,0,1,1,.35,0v2.1a2.54,2.54,0,0,1-.7,1.91,2.94,2.94,0,0,1-1.91.74H7.4v3.08H19.66a1.42,1.42,0,0,1,2.83.17,1.44,1.44,0,0,1-1.42,1.42,1.41,1.41,0,0,1-1.41-1.24H7.4v2.07h8.48A2.11,2.11,0,0,1,17.81,27v5.12h5.5V28.33h.35v3.79h1.92V27.34a1.42,1.42,0,1,1,.36,0v4.77H27.7V29.28h.35v2.83h4.09V15.43Z"/><path class="cls-2" d="M15.88,25H7.41v2.17h2.81a1.43,1.43,0,1,1,0,.35H7.41V32.1h10V27C17.45,25.1,15.94,25,15.88,25Z"/><path class="cls-2" d="M39.52,30.32V29.26h-4.2V27h4.19V25.9H35.32V23.62h4.2V22.55h-4.2v-2.3H39.5V19.19H35.3V16.9h4.19V15.84H35.3V13.55h4.2V12.48H35.3v-2.3h4.19V9.12h-4.2V6.51A2.33,2.33,0,0,0,33,4.19H30.33V0H29.26V4.2H27V0H25.9V4.2H23.62V0H22.55V4.21h-2.3V0H19.19V4.2H16.9V0H15.83V4.22H13.55V0H12.48V4.23h-2.3V0H9.12V4.2H6.51A2.34,2.34,0,0,0,4.19,6.56h0V9.19H0v1.06H4.2v2.3H0v1.06H4.2v2.3H0V17H4.21v2.29H0v1.06H4.2v2.3H0v1.06H4.22V26H0v1H4.23v2.3H0v1.1H4.2V33a2.34,2.34,0,0,0,2.33,2.32H9.19v4.19h1.06v-4.2h2.3v4.2h1.06V35.32H15.9v4.2H17v-4.2h2.3V39.5h1.06V35.3h2.3v4.2h1.06V35.3H26v4.2h1V35.3h2.3v4.19h1.1v-4.2H33A2.32,2.32,0,0,0,35.33,33V30.33ZM6.71,32.86V6.72l26.15-.06V32.81Z"/></g></g></svg>