<svg id="圖層_1" data-name="圖層 1" xmlns="http://www.w3.org/2000/svg" viewBox="0 0 39.34 38.89"><title>icon-list-04c</title><path d="M40.24,16.18v1.36a2.3,2.3,0,0,0-.06.28,15.24,15.24,0,0,1-2.88,8.11,1.32,1.32,0,0,0-.24.67,11.46,11.46,0,0,1-1.2,4.24,4.87,4.87,0,0,0-.28.56c-.15.41,0,.61.43.61.61,0,1.23,0,1.83,0a4.29,4.29,0,0,1,2.4.59v2.51a1.62,1.62,0,0,1-.71,1.35c-.14.08-.12.26-.14.4-.1.68-.22,1.36-.29,2a.89.89,0,0,1-.77.85,7.8,7.8,0,0,1-2.26.1c-1.12-.05-1.33-.28-1.47-1.4a.61.61,0,0,0,0-.14,15.58,15.58,0,0,0-.31-1.79c-.17.07-.17.19-.19.3-.1.72-.22,1.43-.29,2.15a.88.88,0,0,1-.66.85c-.4.12-.81.21-1.21.31H29.12a9.35,9.35,0,0,1-1.25-.36.79.79,0,0,1-.52-.63c-.09-.61-.1-.61-.69-.38A21.32,21.32,0,0,1,16.5,40,21.11,21.11,0,0,1,5.81,35.27,13.1,13.1,0,0,1,2,30.52a12.3,12.3,0,0,1-1.06-3.8V25.08c0-.1,0-.19.06-.29a11.37,11.37,0,0,1,2.55-6,16.19,16.19,0,0,1,5.24-4.2.91.91,0,0,0,.55-.66,15.61,15.61,0,0,1,30.3-1.49A19.79,19.79,0,0,1,40.24,16.18Zm-35.09,13c-.08,0-.13-.05-.14-.07a6.91,6.91,0,0,1-.32-5.31,11.23,11.23,0,0,1,5.44-5.74,18.53,18.53,0,0,1,14.7-1.29,13.7,13.7,0,0,1,7.41,5.14A6.09,6.09,0,0,1,33.58,25a8.75,8.75,0,0,1-.22,3c-.17.65-.16.65.48.77a2.87,2.87,0,0,1,1.32.43c.34.27.4.11.5-.18a9.69,9.69,0,0,0-.45-7.29,13.25,13.25,0,0,0-6.1-6.12,21.57,21.57,0,0,0-17.69-1.16A15.4,15.4,0,0,0,4,19.7a9.92,9.92,0,0,0-.3,11.94,13.28,13.28,0,0,0,4.18,4,21.55,21.55,0,0,0,17.87,2c1.35-.39,1.33-.42,1.18-1.8a1.19,1.19,0,0,0-.51-1,1.36,1.36,0,0,1-.68-1.11,20,20,0,0,1-.06-3.28c0-1.13.25-1.37,1.37-1.61a22,22,0,0,1,4.86-.29c.57,0,.67-.07.7-.65A7.94,7.94,0,0,0,32,24.37a10.63,10.63,0,0,0-5.14-5.49,17.1,17.1,0,0,0-11.1-1.74,14.6,14.6,0,0,0-7.34,3.22A8.75,8.75,0,0,0,5,28C5,28.37,5.09,28.77,5.15,29.21ZM26.45,9.88c0,1,0,2,0,3a.58.58,0,0,0,.44.64,17.3,17.3,0,0,1,2.77,1.26C31.71,16,34,16.57,36.17,17.48c.3.12.39,0,.37-.3s0-.7-.1-1.05A11.32,11.32,0,0,0,32,8.23a19.6,19.6,0,0,0-4.13-2.29,1,1,0,0,0-1.41.94ZM37,24.62a.87.87,0,0,0,.32-.41,14.47,14.47,0,0,0,1.61-10.63A14.64,14.64,0,0,0,23.2,2.23a14.41,14.41,0,0,0-11.69,8,12.73,12.73,0,0,0-1.16,3.12c0,.12-.09.26,0,.37s.23,0,.35,0c.47-.08.57-.45.7-.83A14,14,0,0,1,30.13,4.55a14.33,14.33,0,0,1,7.11,19.3A1.2,1.2,0,0,0,37,24.62Zm-.23-1.23a1.13,1.13,0,0,0,.34-.59,14,14,0,0,0,.77-7.68A13.51,13.51,0,0,0,23.22,4a13.25,13.25,0,0,0-10.07,6.4A12.69,12.69,0,0,0,12,12.85c0,.1-.11.22,0,.32s.21,0,.32,0a.84.84,0,0,0,.66-.62C14.64,8.4,17.86,6,22,4.63a.83.83,0,0,1,.92.2,5.25,5.25,0,0,0,1,.78.8.8,0,0,1,.4.8c0,1.95,0,3.9,0,5.84,0,.51.33.8.94.76s.28-.44.28-.68c0-2,0-3.93,0-5.9,0-.25-.05-.51.22-.69a10.5,10.5,0,0,0,1-.77.73.73,0,0,1,.84-.13A24,24,0,0,1,31.2,6.6c4.45,2.65,6.28,6.71,6.26,11.74,0,.53-.07.57-.57.38-1-.37-2-.76-3-1.14a1,1,0,0,0-.59-.12A12.69,12.69,0,0,1,36.78,23.39ZM23.39,9.44c0-.68-.05-1.36,0-2a1.61,1.61,0,0,0-.79-1.66.76.76,0,0,0-.75-.13,14.48,14.48,0,0,0-3.38,1.64,12,12,0,0,0-4.42,5c-.05.12-.18.26-.07.4s.24.05.37,0a23.58,23.58,0,0,1,8.54-.13c.39.06.5,0,.49-.42C23.38,11.21,23.39,10.32,23.39,9.44Zm3.05,20.17c1.33.79,7.41.75,8.31,0C33.44,28.85,27.69,28.86,26.44,29.61Zm8,3.22a11.61,11.61,0,0,0,4.91,0A10.72,10.72,0,0,0,34.45,32.83Z" transform="translate(-0.89 -1.26)" style="fill:#112f8e"/><path d="M32,21a16.82,16.82,0,0,0-13-5.42A16.94,16.94,0,0,0,6,21a1.3,1.3,0,0,1,.37-.67,13.32,13.32,0,0,1,6.39-4.4,18.33,18.33,0,0,1,15.14,1.21,11.9,11.9,0,0,1,3.91,3.39C31.87,20.66,32,20.78,32,21Z" transform="translate(-0.89 -1.26)" style="fill:#112f8e"/></svg>