<svg xmlns="http://www.w3.org/2000/svg" viewBox="0 0 76.26 77.94"><defs><style>.cls-1{fill:none;stroke:#fff;stroke-linecap:round;stroke-linejoin:round;stroke-width:3px;}</style></defs><title>icon-phone</title><g id="圖層_2" data-name="圖層 2"><g id="圖層_1-2" data-name="圖層 1"><path class="cls-1" d="M29.32,38.39,38.46,48a10.72,10.72,0,0,0,10.95,2.8A8.34,8.34,0,0,1,63.59,46.6l8.87,9.28a8.36,8.36,0,0,1-.26,11.78L70,69.72A24.4,24.4,0,0,1,35.63,69L8.22,40.27A24.41,24.41,0,0,1,9,5.86L11.15,3.8a8.35,8.35,0,0,1,11.78.27l8.87,9.28a8.31,8.31,0,0,1-4.79,14A10.74,10.74,0,0,0,29.32,38.39Z"/></g></g></svg>