<svg xmlns="http://www.w3.org/2000/svg" viewBox="0 0 30.64 40.09"><defs><style>.cls-1{fill:#777;}</style></defs><title>icon-list-03b</title><g id="圖層_2" data-name="圖層 2"><g id="圖層_1-2" data-name="圖層 1"><g id="圖層_1-2-2" data-name="圖層 1-2"><path class="cls-1" d="M30.42,1.17a.17.17,0,0,0,.08.17c.08,0,0,.08,0,.14l.1.23v32.8H26V1.75h0l.09-.23a.58.58,0,0,1,.05-.14.51.51,0,0,1,.07-.17L26.3.93V.88h0A.91.91,0,0,1,27,.63h2.64a.85.85,0,0,1,.64.25h0V.93ZM9.92,36.07h3.16a.33.33,0,0,1,.28.12h0a.48.48,0,0,1,.11.3v1.68a.51.51,0,0,1-.11.31h0a.43.43,0,0,1-.28.11H9.92a.43.43,0,0,1-.28-.11h0a.51.51,0,0,1-.11-.31V36.49a.48.48,0,0,1,.11-.3A.33.33,0,0,1,9.92,36.07ZM3,1.87H20.05a.74.74,0,0,1,.59.28h0a1,1,0,0,1,.26.66v32.6H2.1V2.87a1.12,1.12,0,0,1,.26-.72h0A.88.88,0,0,1,3,1.87ZM2.23,0H20.77a2.14,2.14,0,0,1,1.57.71h0A2.56,2.56,0,0,1,23,2.46V37.61a2.63,2.63,0,0,1-.66,1.75h0a2.16,2.16,0,0,1-1.57.73H2.23a2.16,2.16,0,0,1-1.57-.73h0A2.63,2.63,0,0,1,0,37.61V2.46A2.56,2.56,0,0,1,.66.73h0A2.16,2.16,0,0,1,2.23,0ZM20.77,1H2.23a1.31,1.31,0,0,0-.94.44h0a1.48,1.48,0,0,0-.39,1V37.61a1.5,1.5,0,0,0,.39,1h0a1.31,1.31,0,0,0,.94.44H20.77a1.31,1.31,0,0,0,.94-.44h0a1.5,1.5,0,0,0,.39-1V2.46a1.48,1.48,0,0,0-.39-1h0A1.27,1.27,0,0,0,20.77,1Zm9.87,35.21v2.15a1.08,1.08,0,0,1-.3.78h0a1,1,0,0,1-.71.34H27a.91.91,0,0,1-.64-.27h0L26.27,39a.36.36,0,0,1-.07-.17.24.24,0,0,0-.05-.14L26,38.37h0V36.19ZM27.59,14.38a1.19,1.19,0,0,0,0,1.56,1,1,0,0,0,.7.32,1,1,0,0,0,.71-.32h0a1.19,1.19,0,0,0,0-1.56,1,1,0,0,0-.71-.32A1.11,1.11,0,0,0,27.59,14.38Zm0-3.26a1.24,1.24,0,0,0-.3.78,1.19,1.19,0,0,0,.3.78h0a.91.91,0,0,0,1.4,0h0a1.19,1.19,0,0,0,0-1.56.94.94,0,0,0-.7-.32A1.11,1.11,0,0,0,27.59,11.12Zm.15-8.47v6h1.15V2.48H27.74Z"/></g></g></g></svg>