<svg xmlns="http://www.w3.org/2000/svg" viewBox="0 0 32.03 40.69"><defs><style>.cls-1{fill:#31469b;}.cls-2{fill:none;stroke:#31469b;stroke-miterlimit:10;stroke-width:1.96px;}</style></defs><title>icon-list-06c</title><g id="圖層_2" data-name="圖層 2"><g id="圖層_1-2" data-name="圖層 1"><path class="cls-1" d="M31.32,23.76h-.8c-.24-1.16-.55-1.84-.88-1.84-.78,0-1.42,3.84-1.42,8.59a42.72,42.72,0,0,0,.29,5.18h2.27a42.71,42.71,0,0,0,.28-5.18v-.26h.26a.72.72,0,0,0,.71-.73h0v-5a.7.7,0,0,0-.64-.76Z"/><path class="cls-1" d="M29.39,36.62h-.75A6,6,0,0,0,29.36,39v.5a.28.28,0,0,0,.55,0V39a5.63,5.63,0,0,0,.73-2.33H29.39Z"/><path class="cls-1" d="M5.46,6.37h9.8a.82.82,0,0,1,.82.81h0a.82.82,0,0,1-.82.82H5.46a.82.82,0,0,1-.82-.82h0A.82.82,0,0,1,5.46,6.37Z"/><rect class="cls-1" x="4.64" y="13.24" width="11.44" height="1.63" rx="0.81"/><rect class="cls-1" x="4.64" y="9.81" width="15.9" height="1.63" rx="0.81"/><rect class="cls-2" x="0.98" y="0.98" width="24.52" height="38.73" rx="2.62"/></g></g></svg>