<svg xmlns="http://www.w3.org/2000/svg" viewBox="0 0 34.27 39.1"><defs><style>.cls-1{fill:none;stroke-linecap:round;stroke-linejoin:round;stroke-width:1.16px;}.cls-1,.cls-3{stroke:#31469b;}.cls-2{fill:#31469b;}.cls-3{fill:#fff;stroke-miterlimit:10;}</style></defs><title>icon-list-01c</title><g id="圖層_2" data-name="圖層 2"><g id="圖層_1-2" data-name="圖層 1"><rect class="cls-1" x="10.83" y="12.64" width="3.39" height="25.88"/><polyline class="cls-1" points="10.84 12.89 14.01 16.46 11.06 19.77 14.14 23.23 10.91 26.86 14.14 30.5 10.84 34.21 14.08 37.86"/><polygon class="cls-1" points="29.57 8.61 32.47 11.99 2.84 11.99 2.84 8.61 29.57 8.61"/><polyline class="cls-1" points="3.13 11.99 6.9 8.82 10.4 11.77 14.07 8.69 17.91 11.92 21.76 8.69 25.69 11.99 29.57 8.61 10.84 0.58"/><rect class="cls-2" y="5.8" width="2.84" height="8.51"/><polyline class="cls-1" points="2.84 7.25 10.84 0.58 10.84 8.03"/><line class="cls-1" x1="27.38" y1="12" x2="27.38" y2="17.9"/><rect class="cls-2" x="20.48" y="21.31" width="13.79" height="3.92"/><rect class="cls-2" x="20.48" y="29.8" width="13.79" height="3.92"/><rect class="cls-2" x="20.48" y="34.73" width="13.79" height="3.92"/><rect class="cls-3" x="26.1" y="16.85" width="2.55" height="2.1"/><polyline class="cls-1" points="21.5 21.89 26.29 18.94 28.46 18.94 33.25 21.89"/></g></g></svg>