<svg xmlns="http://www.w3.org/2000/svg" viewBox="0 0 34.83 40.14"><defs><style>.cls-1{fill:#fff;}.cls-2{fill:#31469b;}</style></defs><title>icon-list-07c</title><g id="圖層_2" data-name="圖層 2"><g id="圖層_1-2" data-name="圖層 1"><polygon class="cls-1" points="9.19 34.77 9.46 34.58 9.87 35.32 10.41 34.94 9.99 34.22 10.26 34.03 10.68 34.78 11.11 34.5 10.3 33.1 10.57 32.94 11.35 34.33 12.02 33.88 11.56 33.1 11.85 32.95 12.29 33.72 12.86 33.34 12.39 32.56 12.66 32.4 13.1 33.18 13.63 32.83 12.82 31.43 13.09 31.27 13.9 32.63 14.41 32.31 13.97 31.53 14.21 31.34 14.67 32.15 15.21 31.76 14.78 30.99 15.04 30.83 15.52 31.58 16.05 31.23 15.24 29.83 15.52 29.64 16.32 31.06 18 29.93 18.89 27.52 16.38 27.17 6.2 33.9 7.79 36.65 9.6 35.48 9.19 34.77"/><path class="cls-2" d="M19.51,23.86c-.73-.24-1.18-.05-1.34.33s.13.82.89,1.09a3.44,3.44,0,0,0,1.88-.13A3.56,3.56,0,0,0,19.51,23.86Z"/><polygon class="cls-2" points="5.26 39.79 4.68 38.78 7.34 37.05 5.64 34.04 2.96 35.77 2.38 34.77 1.87 35.12 4.72 40.14 5.26 39.79"/><path class="cls-2" d="M8.1,37.82l.27-.16L8,36.94l10.28-6.77h0l1-2.62L22,25.68h0l-.28-.13L19,27.25l-2.74-.4L6,33.63,5.66,33l-.26.16L7.68,37.1ZM6.2,33.9l10.18-6.73,2.51.35L18,29.93l-1.68,1.13-.8-1.42-.28.19.81,1.4-.54.35-.46-.75-.27.16.44.77-.55.39-.46-.81-.24.19.44.78-.51.32-.81-1.36-.27.16.81,1.4-.54.35-.43-.78-.27.16.47.78-.57.38-.44-.78-.29.16.46.78-.67.45-.78-1.39-.27.16.81,1.4-.44.28L10.26,34l-.27.19.42.72-.54.38-.41-.74-.28.19.42.71-1.81,1.2Z"/><path class="cls-2" d="M29.27,12.78a5.37,5.37,0,0,0-.92,10.68V29.1a8.11,8.11,0,0,1-16.22,0l-.06-6.42a9.83,9.83,0,0,0,6-3.66,1,1,0,0,0,.3-1,19.19,19.19,0,0,0,4-10.74c0-5-2.32-5.58-6.16-6.48a1.46,1.46,0,0,0-2.75.66A1.47,1.47,0,0,0,14.93,2.9a1.58,1.58,0,0,0,.85-.36c3.72.9,4.76,1.08,4.76,4.74A17.55,17.55,0,0,1,17,16.86a1.31,1.31,0,0,0-1,.42C14.94,18.54,13.23,20,11.22,20s-3.78-1.5-4.88-2.76a1.34,1.34,0,0,0-1-.42,17.84,17.84,0,0,1-3.48-9.6c0-3.66,1-3.9,4.75-4.74a1.39,1.39,0,0,0,.86.36A1.47,1.47,0,0,0,8.9,1.44,1.43,1.43,0,0,0,7.48,0h0A1.58,1.58,0,0,0,6.1.78C2.31,1.68,0,2.16,0,7.26A18.61,18.61,0,0,0,4,18a1.07,1.07,0,0,0,.31,1.08,9.8,9.8,0,0,0,6,3.6V29.1a10,10,0,0,0,19.94,0V23.46a5.34,5.34,0,0,0,4.58-5.28,5.42,5.42,0,0,0-5.44-5.4Zm0,8.1a2.79,2.79,0,0,1-2.75-2.7,2.75,2.75,0,0,1,2.75-2.7A2.71,2.71,0,0,1,32,18.17h0A2.75,2.75,0,0,1,29.27,20.88Z"/></g></g></svg>