<svg xmlns="http://www.w3.org/2000/svg" viewBox="0 0 42.4 39.91"><defs><style>.cls-1{fill:#fff;stroke-miterlimit:10;fill-rule:evenodd;}.cls-1,.cls-3{stroke:#31469b;}.cls-2{fill:#31469b;}.cls-3{fill:none;stroke-linecap:round;stroke-linejoin:round;stroke-width:1.34px;}</style></defs><title>icon-list-03c</title><g id="圖層_2" data-name="圖層 2"><g id="圖層_1-2" data-name="圖層 1"><path class="cls-1" d="M26.64,13.32a.27.27,0,0,0-.27.27h0v.05h-.11v.2H26.2V11.24L41,9.42l-.44-.29L23.84,10.32v-.07a.57.57,0,0,0-.06-.25,2.59,2.59,0,0,1-5.07-.2.64.64,0,0,0-.19.45v.07L1.85,9.13l-.44.29,15.08,1.86v2.57h-.06v-.2h-.11V13.6a.28.28,0,0,0-.27-.28.27.27,0,0,0-.26.28h0v.62a.26.26,0,0,0,.26.27.28.28,0,0,0,.27-.27v-.07h.11v-.23h.06v.15h.22v-.15h.06v.23h.12v.07a.25.25,0,0,0,.25.27h0a.26.26,0,0,0,.27-.25V13.6a.28.28,0,0,0-.26-.28h0a.26.26,0,0,0-.25.27h0v.05h-.12v.2h-.06V11.31l1.81.22a.61.61,0,0,0,.57.53H21.2v1.38h0v-.12h-.11a.17.17,0,1,0-.34,0v.39a.17.17,0,1,0,.34,0h.08v-.16h0v.11h.14v-.11h0v.16h.08a.16.16,0,0,0,.14.18h0a.17.17,0,0,0,.16-.18h0v-.39a.18.18,0,0,0-.16-.18h0a.16.16,0,0,0-.16.16v0h-.08v.12h0V12h1.91a.59.59,0,0,0,.58-.53L26,11.27v2.58h-.06v-.2h-.11V13.6a.28.28,0,0,0-.27-.28.26.26,0,0,0-.26.26v.64a.25.25,0,0,0,.25.27h0a.28.28,0,0,0,.27-.27v-.07h.11v-.23H26v.15h.22v-.15h.06v.23h.11v.07a.27.27,0,0,0,.27.27h0a.26.26,0,0,0,.26-.26h0V13.6a.27.27,0,0,0-.24-.28Z"/><path class="cls-1" d="M28.43,11a1.09,1.09,0,1,0,1,1.18v-.1A1,1,0,0,0,28.51,11Zm0,1.79a.7.7,0,0,1-.77-.64.71.71,0,1,1,1.42-.12v0a.68.68,0,0,1-.65.69Z"/><path class="cls-1" d="M14.27,11a1.09,1.09,0,1,0,1,1.18v-.09A1.05,1.05,0,0,0,14.27,11Zm0,1.79a.7.7,0,1,1-.06-1.4.71.71,0,0,1,.73.67v0a.68.68,0,0,1-.66.7Z"/><path class="cls-1" d="M18.7,9.13a2.58,2.58,0,1,0,5.14.46,3.53,3.53,0,0,0,0-.46,3.27,3.27,0,0,0-.05-.53L28.61,8l-.16-.1-4.74.32a2.64,2.64,0,0,0-2.15-1.87L21.27,0,21,6.39a2.61,2.61,0,0,0-2.14,1.87l-4.72-.32L14,8l4.79.56A3.47,3.47,0,0,0,18.7,9.13Zm1.08-1.36h2.93l.41.76h-3.7Z"/><path class="cls-2" d="M11.26,31.8s0,1.14.21,1.33a8.41,8.41,0,0,0,2,.3,8.21,8.21,0,0,1-1.74-.56A4.46,4.46,0,0,1,11.26,31.8Z"/><path class="cls-2" d="M14.53,31.88a8.46,8.46,0,0,0-1.23-.29,6.74,6.74,0,0,1,1.12.53,16.51,16.51,0,0,1,1.25,1.11S15,32,14.53,31.88Z"/><path class="cls-2" d="M30.19,26.9C30.07,27,30.08,28,30,28a1.07,1.07,0,0,0-.27.09c-.45-.82-1.92-3.62-1.92-3.62H14.56s-1.47,2.8-1.91,3.62a1.31,1.31,0,0,0-.28-.09c-.09,0-.07-1-.2-1.09a4.52,4.52,0,0,0-2,.19A1.43,1.43,0,0,0,10,28.37c.2.24,2-.09,2.09,0a.85.85,0,0,1,.15.3c-.57.66-1.68,1.85-1.68,2.3v7.88h3.57V37.54H28.24v1.31h3.57V31c0-.45-1.11-1.64-1.68-2.3a.85.85,0,0,1,.15-.3c.13-.09,1.89.24,2.09,0a1.39,1.39,0,0,0-.16-1.28A4.63,4.63,0,0,0,30.19,26.9ZM15.05,25.2h6v.25h-.94c-.22,0-.19.73,0,.73h2.24c.19,0,.22-.73,0-.73h-.94V25.2h5.95l1.5,3.1H13.55ZM16.47,36l.22.83H15.54l-.32-.8Zm.41,0h1.39l.17.85H17Zm1.17-2.1L18,33.8h3.3v-.22H17.75l-.25-.32h3.76V33H17.35c-.07-.11-.14-.22-.2-.33h4.11v-.22H17a2,2,0,0,1-.18-.32h4.42v-.22h-4.5a1.64,1.64,0,0,1-.14-.33h4.67v-.22H16.54a.17.17,0,0,1,0-.1c.16-.27,2.29-.16,4.63-.16s4.47-.11,4.63.16a.17.17,0,0,1,0,.1H21.2v.22h4.57a1.07,1.07,0,0,1-.13.33H21.2v.22h4.33l-.18.32H21.2v.22h4L25,33H21.2v.22h3.66c-.09.12-.17.23-.25.32H21.2v.22h3.2l-.08.06a11.85,11.85,0,0,1-3.14.27,11.76,11.76,0,0,1-3.13-.25ZM25.48,36l-.14.84H23.92L24.1,36Zm.42,0h1.25l-.32.8H25.68ZM11.07,31.49c0-.29,3.24-.07,3.6.18s1.58,1.8,1.2,2a15.46,15.46,0,0,1-4.55-.32A3.7,3.7,0,0,1,11.07,31.49ZM14,36.12a5.1,5.1,0,0,1,.82-.1l.4.78h-.35C14.42,36.8,14.07,36.29,14,36.12Zm4.81.68-.09-.86h5l-.09.86H18.8Zm8.76,0h-.35l.4-.78c.53,0,.85.06.82.1s-.44.68-.9.68Zm3.76-5.31a3.89,3.89,0,0,1-.24,1.82,15.46,15.46,0,0,1-4.55.32c-.39-.16.84-1.71,1.19-2s3.55-.43,3.57-.14Z"/><path class="cls-2" d="M30.89,33.13c.2-.19.21-1.33.21-1.33a5.87,5.87,0,0,1-.44,1.07,8.92,8.92,0,0,1-1.75.56A8.32,8.32,0,0,0,30.89,33.13Z"/><path class="cls-2" d="M26.7,33.23q.61-.58,1.29-1.11a6.84,6.84,0,0,1,1.13-.53,8.6,8.6,0,0,0-1.24.29C27.42,32,26.7,33.23,26.7,33.23Z"/><line class="cls-3" x1="11.86" y1="15.49" x2="1.98" y2="39.24"/><line class="cls-3" x1="30.5" y1="15.49" x2="40.39" y2="39.24"/></g></g></svg>