<svg xmlns="http://www.w3.org/2000/svg" xmlns:xlink="http://www.w3.org/1999/xlink" viewBox="0 0 679.22 644.09"><defs><style>.cls-1,.cls-2{fill:none;}.cls-2{stroke:#000;stroke-miterlimit:10;}.cls-3{clip-path:url(#clip-path);}.cls-4{clip-path:url(#clip-path-2);}.cls-5{clip-path:url(#clip-path-3);}.cls-6{clip-path:url(#clip-path-4);}.cls-7{clip-path:url(#clip-path-5);}.cls-8{clip-path:url(#clip-path-6);}.cls-9{clip-path:url(#clip-path-7);}.cls-10{clip-path:url(#clip-path-8);}.cls-11{clip-path:url(#clip-path-9);}.cls-12{clip-path:url(#clip-path-10);}.cls-13{clip-path:url(#clip-path-11);}.cls-14{clip-path:url(#clip-path-12);}.cls-15{clip-path:url(#clip-path-13);}.cls-16{clip-path:url(#clip-path-14);}.cls-17{clip-path:url(#clip-path-15);}.cls-18{clip-path:url(#clip-path-16);}</style><clipPath id="clip-path"><ellipse class="cls-1" cx="229.88" cy="539.66" rx="8.92" ry="12.96" transform="translate(-305.77 300.58) rotate(-42.87)"/></clipPath><clipPath id="clip-path-2"><ellipse class="cls-1" cx="100.72" cy="405.28" rx="8.47" ry="13.23" transform="translate(-219.68 137.43) rotate(-36.15)"/></clipPath><clipPath id="clip-path-3"><ellipse class="cls-1" cx="99.9" cy="331.19" rx="7.76" ry="11.35" transform="translate(-176.13 122.69) rotate(-36.15)"/></clipPath><clipPath id="clip-path-4"><ellipse class="cls-1" cx="130.01" cy="288.53" rx="10.05" ry="13.4" transform="matrix(1, -0.02, 0.02, 1, -6.91, 3.22)"/></clipPath><clipPath id="clip-path-5"><ellipse class="cls-1" cx="402.06" cy="126.35" rx="5.57" ry="9.48" transform="translate(-9.37 35.01) rotate(-4.93)"/></clipPath><clipPath id="clip-path-6"><ellipse class="cls-1" cx="31.14" cy="213.48" rx="9.13" ry="14.27" transform="translate(-91.19 35.78) rotate(-26.25)"/></clipPath><clipPath id="clip-path-7"><ellipse class="cls-1" cx="409.6" cy="610.65" rx="10.68" ry="14.41" transform="translate(-321.62 533.28) rotate(-50.11)"/></clipPath><clipPath id="clip-path-8"><ellipse class="cls-1" cx="298.1" cy="537.97" rx="7.84" ry="11.36" transform="translate(-286.39 346.54) rotate(-42.87)"/></clipPath><clipPath id="clip-path-9"><ellipse class="cls-1" cx="270.3" cy="484.63" rx="8.39" ry="13" transform="matrix(0.01, -1, 1, 0.01, -216.93, 750.21)"/></clipPath><clipPath id="clip-path-10"><ellipse class="cls-1" cx="398.49" cy="530.57" rx="8.39" ry="13.7" transform="translate(-135.92 923.88) rotate(-89.44)"/></clipPath><clipPath id="clip-path-11"><ellipse class="cls-1" cx="328.37" cy="429.6" rx="7.17" ry="12.59" transform="matrix(0.01, -1, 1, 0.01, -104.39, 753.78)"/></clipPath><clipPath id="clip-path-12"><ellipse class="cls-1" cx="378.72" cy="382.03" rx="6.17" ry="11.34" transform="translate(-37.35 723) rotate(-84.58)"/></clipPath><clipPath id="clip-path-13"><ellipse class="cls-1" cx="426.64" cy="337.13" rx="5.39" ry="10.4" transform="translate(50.75 730.05) rotate(-84.58)"/></clipPath><clipPath id="clip-path-14"><ellipse class="cls-1" cx="464.52" cy="300.93" rx="4.96" ry="9.65" transform="translate(121.08 734.97) rotate(-84.58)"/></clipPath><clipPath id="clip-path-15"><ellipse class="cls-1" cx="498.97" cy="269.41" rx="4.03" ry="8.96" transform="translate(206.81 755.42) rotate(-87.35)"/></clipPath><clipPath id="clip-path-16"><ellipse class="cls-1" cx="597.31" cy="294.14" rx="4.03" ry="8.96" transform="translate(251.89 863.33) rotate(-84.97)"/></clipPath></defs><title>dwg</title><g id="圖層_2" data-name="圖層 2"><g id="圖層_2-2" data-name="圖層 2"><polygon class="cls-2" points="156.56 439.68 68.56 187.68 64.56 186.68 44.56 145.68 0.56 204.68 87.56 435.68 156.56 439.68"/><polygon class="cls-2" points="45.56 133.68 49.56 132.68 68.56 187.68 64.56 186.68 48.93 143.06 45.56 133.68"/><line class="cls-2" x1="44.56" y1="145.68" x2="49.26" y2="143.99"/><polygon class="cls-2" points="384.56 0.68 49.56 132.68 68.56 187.68 393.56 40.18 384.56 0.68"/><polygon class="cls-2" points="436.06 225.18 393.56 40.18 68.56 187.68 156.56 439.68 164.56 439.68 436.06 225.18"/><path class="cls-2" d="M205.76,407.13s2.14,4.38,6.64,4.88l14.66.17,1.84.17L234.23,432s1.33,9.67-7,12.17l-62.67-4.5Z"/><path class="cls-2" d="M206.78,406.32s.78,4,7.62,4.19l13,.17,1.5,1.67,6.16-4.5-1.5-1.67-6.16,4.5,6.16-4.5h-13a13.78,13.78,0,0,1-7.94-4.47"/><path class="cls-2" d="M229.29,443.32l11.61-9.14s1.16-6-1-11.17l-4.84-15.16"/><path class="cls-2" d="M227.29,390.12s3.44,3.56,5.77,4.23A21.31,21.31,0,0,1,245.9,399s6.83,7.34,8.5,13l.83,6.67s.5,3.5,2.33,4.67L243.23,435l-2.11-2.65"/><polyline class="cls-2" points="207.24 442.74 204.9 445.35 206.9 466.18"/><path class="cls-2" d="M229.23,447.85c-.67-.17-7-2.5-7.83-2.5H204.9"/><polyline class="cls-2" points="220.89 443.72 220.63 445.35 221.99 445.46 222.14 443.81"/><path class="cls-2" d="M236.05,394.62l10.64-.19s2,.12,2.5.87l4,13.81"/><path class="cls-2" d="M232.81,385.76a11.86,11.86,0,0,0,7,3.92l14.13-.13s.5,0,1,1.13l5.62,19.75s.82,7.45-4.77,10.35"/><line class="cls-2" x1="247.3" y1="394.5" x2="253.94" y2="389.55"/><line class="cls-2" x1="249.19" y1="395.3" x2="254.94" y2="390.68"/><path class="cls-2" d="M458.73,251.18l-262,223.67s-2,1-1.33,5.33l6.33,76.33,217,87,53.33-49-2-8,8.67,3.34,5-3,194.67-284L463.06,250.51A4.78,4.78,0,0,0,458.73,251.18Z"/><path class="cls-2" d="M483.73,586.85l-51.67-19.17s-3.25,4.25-2.5,4.25,4,2,4,2l.75-1.25,35.75,13.83"/><polyline class="cls-2" points="195.4 480.18 432.06 567.68 640.34 293.6"/><path class="cls-2" d="M220.86,426.54c3.83,5.19,4.1,11.44.76,13.84s-9.11.09-12.87-5.15-4-11.3-.76-13.84C210.64,419.32,217,421.33,220.86,426.54Z"/><ellipse class="cls-2" cx="214.88" cy="431.67" rx="2.61" ry="3.33" transform="matrix(0.81, -0.58, 0.58, 0.81, -211.35, 206.2)"/><path class="cls-2" d="M208.68,421l2.72-2.63s6.83-.84,11.33,4.58c0,0,8.17,8.92,2.42,16a11.29,11.29,0,0,1-4.81,2.1"/><path class="cls-2" d="M205.91,425l-2.68-3.37a3.07,3.07,0,0,1,.58-2.92l2.34-2.25s.91-.25,1.83.92l1.51,2.84"/><path class="cls-2" d="M211.4,418.35l-2.25-3.59a2,2,0,0,1,1.5-2.08,3.93,3.93,0,0,1,3.25,1.42l2,2.83a9.82,9.82,0,0,0,3.58,2s5.25,1.75,7.92,9c0,0,3.75,7.33-2.5,13.17,0,0-3.2,1.68-5.31.13"/><path class="cls-2" d="M211.15,412.69l.8-.74s2.45-.1,3.45,1.48l1.91,2.33a7.32,7.32,0,0,0,3.09,1.84s5.08,1.33,8.83,7.66c0,0,4.93,7.82-.17,13.25,0,0-2.16,2.42-4.16,2.59"/><path class="cls-2" d="M399.24,281.29c3.2,4.09,3.42,9,.63,10.9s-7.58.08-10.72-4.06-3.33-8.9-.63-10.9C390.73,275.59,396,277.18,399.24,281.29Z"/><ellipse class="cls-2" cx="393.7" cy="285.33" rx="2.14" ry="2.73" transform="translate(-92.52 283) rotate(-35.66)"/><path class="cls-2" d="M389.1,276.9l2.26-2.07s5.69-.66,9.44,3.61c0,0,6.81,7,2,12.61a9.72,9.72,0,0,1-4,1.66"/><path class="cls-2" d="M386.79,280l-2.23-2.65a2.3,2.3,0,0,1,.48-2.3l1.95-1.77a1.6,1.6,0,0,1,1.53.72l1.25,2.24"/><path class="cls-2" d="M391.36,274.83,389.49,272s-.21-1.11,1.25-1.64a3.37,3.37,0,0,1,2.7,1.12l1.67,2.23a8.4,8.4,0,0,0,3,1.58s4.37,1.38,6.59,7.09a8.56,8.56,0,0,1-2.08,10.38s-2.66,1.33-4.42.1"/><path class="cls-2" d="M391.15,270.37l.67-.59s2-.08,2.87,1.17l1.6,1.84a6.21,6.21,0,0,0,2.57,1.45,13.5,13.5,0,0,1,7.36,6s4.11,6.16-.14,10.44c0,0-1.8,1.91-3.47,2"/><path class="cls-2" d="M344.65,297.4l57.08-2.55a9.09,9.09,0,0,0,8-7,32,32,0,0,0-1.33-9l-4-11.34L384,266.32"/><path class="cls-2" d="M402.94,251.35l18.46.16s3.66,1.67,5.66,16.67l-1.24,11.1"/><line class="cls-2" x1="404.4" y1="267.51" x2="421.4" y2="251.51"/><line class="cls-2" x1="409.58" y1="284.86" x2="427.06" y2="268.18"/><line class="cls-2" x1="382.41" y1="295.71" x2="382.51" y2="316.25"/><ellipse class="cls-2" cx="229.88" cy="539.66" rx="8.92" ry="12.96" transform="translate(-305.77 300.58) rotate(-42.87)"/><g class="cls-3"><ellipse class="cls-2" cx="231.96" cy="537.36" rx="8.92" ry="12.96" transform="matrix(0.73, -0.68, 0.68, 0.73, -303.65, 301.38)"/><ellipse class="cls-2" cx="234.05" cy="535.89" rx="8.92" ry="12.96" transform="matrix(0.73, -0.68, 0.68, 0.73, -302.09, 302.4)"/><ellipse class="cls-2" cx="235.96" cy="533.45" rx="8.92" ry="12.96" transform="translate(-299.91 303.05) rotate(-42.87)"/><ellipse class="cls-2" cx="238.4" cy="531.61" rx="8.92" ry="12.96" transform="matrix(0.73, -0.68, 0.68, 0.73, -298.01, 304.22)"/><ellipse class="cls-2" cx="240.4" cy="529.99" rx="8.92" ry="12.96" transform="matrix(0.73, -0.68, 0.68, 0.73, -296.37, 305.15)"/><ellipse class="cls-2" cx="242.45" cy="528.83" rx="8.92" ry="12.96" transform="translate(-295.04 306.24) rotate(-42.87)"/></g><ellipse class="cls-2" cx="100.72" cy="405.28" rx="8.47" ry="13.23" transform="translate(-219.68 137.43) rotate(-36.15)"/><g class="cls-4"><ellipse class="cls-2" cx="102.93" cy="403.32" rx="8.47" ry="13.23" transform="translate(-218.1 138.36) rotate(-36.15)"/><ellipse class="cls-2" cx="105.07" cy="402.19" rx="8.47" ry="13.23" transform="translate(-217.01 139.41) rotate(-36.15)"/><ellipse class="cls-2" cx="107.13" cy="400.07" rx="8.47" ry="13.23" transform="translate(-215.37 140.21) rotate(-36.15)"/><ellipse class="cls-2" cx="109.65" cy="398.63" rx="8.47" ry="13.23" transform="translate(-214.04 141.42) rotate(-36.15)"/><ellipse class="cls-2" cx="111.72" cy="397.33" rx="8.47" ry="13.23" transform="translate(-212.87 142.39) rotate(-36.15)"/><ellipse class="cls-2" cx="113.81" cy="396.5" rx="8.47" ry="13.23" transform="translate(-211.98 143.46) rotate(-36.15)"/></g><ellipse class="cls-2" cx="99.9" cy="331.19" rx="7.76" ry="11.35" transform="translate(-176.13 122.69) rotate(-36.15)"/><g class="cls-5"><ellipse class="cls-2" cx="101.93" cy="329.42" rx="7.76" ry="11.35" transform="translate(-174.7 123.54) rotate(-36.15)"/><ellipse class="cls-2" cx="103.88" cy="328.36" rx="7.76" ry="11.35" transform="translate(-173.69 124.49) rotate(-36.15)"/><ellipse class="cls-2" cx="105.78" cy="326.44" rx="7.76" ry="11.35" transform="translate(-172.2 125.24) rotate(-36.15)"/><ellipse class="cls-2" cx="108.08" cy="325.11" rx="7.76" ry="11.35" transform="translate(-170.97 126.34) rotate(-36.15)"/><ellipse class="cls-2" cx="109.97" cy="323.91" rx="7.76" ry="11.35" transform="translate(-169.9 127.23) rotate(-36.15)"/><ellipse class="cls-2" cx="111.86" cy="323.12" rx="7.76" ry="11.35" transform="translate(-169.07 128.19) rotate(-36.15)"/></g><ellipse class="cls-2" cx="130.01" cy="288.53" rx="10.05" ry="13.4" transform="matrix(1, -0.02, 0.02, 1, -6.91, 3.22)"/><g class="cls-6"><ellipse class="cls-2" cx="126.54" cy="288.89" rx="10.05" ry="13.4" transform="translate(-6.92 3.13) rotate(-1.38)"/><ellipse class="cls-2" cx="123.68" cy="288.61" rx="10.05" ry="13.4" transform="translate(-6.92 3.06) rotate(-1.38)"/><ellipse class="cls-2" cx="120.24" cy="289.2" rx="10.05" ry="13.4" transform="translate(-6.93 2.98) rotate(-1.38)"/><ellipse class="cls-2" cx="116.81" cy="288.95" rx="10.05" ry="13.4" transform="translate(-6.93 2.9) rotate(-1.38)"/><ellipse class="cls-2" cx="113.91" cy="288.84" rx="10.05" ry="13.4" transform="translate(-6.92 2.83) rotate(-1.38)"/><ellipse class="cls-2" cx="111.32" cy="288.34" rx="10.05" ry="13.4" transform="translate(-6.91 2.76) rotate(-1.38)"/></g><g class="cls-7"><ellipse class="cls-2" cx="398.36" cy="126.27" rx="9.21" ry="10.87" transform="translate(-2.93 9.63) rotate(-1.38)"/><ellipse class="cls-2" cx="395.17" cy="126.57" rx="9.21" ry="10.87" transform="translate(-2.93 9.55) rotate(-1.38)"/><ellipse class="cls-2" cx="392.55" cy="126.35" rx="9.21" ry="10.87" transform="translate(-2.93 9.49) rotate(-1.38)"/><ellipse class="cls-2" cx="389.4" cy="126.84" rx="9.21" ry="10.87" transform="translate(-2.94 9.42) rotate(-1.38)"/></g><ellipse class="cls-2" cx="31.14" cy="213.48" rx="9.13" ry="14.27" transform="translate(-91.19 35.78) rotate(-26.25)"/><g class="cls-8"><ellipse class="cls-2" cx="33.84" cy="211.81" rx="9.13" ry="14.27" transform="translate(-90.18 36.8) rotate(-26.25)"/><ellipse class="cls-2" cx="36.33" cy="211" rx="9.13" ry="14.27" transform="translate(-89.56 37.82) rotate(-26.25)"/><ellipse class="cls-2" cx="38.91" cy="209.13" rx="9.13" ry="14.27" transform="translate(-88.47 38.77) rotate(-26.25)"/><ellipse class="cls-2" cx="41.85" cy="208.07" rx="9.13" ry="14.27" transform="translate(-87.7 39.96) rotate(-26.25)"/><ellipse class="cls-2" cx="44.29" cy="207.08" rx="9.13" ry="14.27" transform="translate(-87.01 40.94) rotate(-26.25)"/><ellipse class="cls-2" cx="46.66" cy="206.58" rx="9.13" ry="14.27" transform="translate(-86.55 41.93) rotate(-26.25)"/></g><ellipse class="cls-2" cx="409.6" cy="610.65" rx="10.68" ry="14.41" transform="translate(-321.62 533.28) rotate(-50.11)"/><g class="cls-9"><ellipse class="cls-2" cx="411.74" cy="607.62" rx="10.68" ry="14.41" transform="translate(-318.52 533.84) rotate(-50.11)"/><ellipse class="cls-2" cx="413.98" cy="605.53" rx="10.68" ry="14.41" transform="translate(-316.12 534.81) rotate(-50.11)"/><ellipse class="cls-2" cx="415.91" cy="602.37" rx="10.68" ry="14.41" transform="translate(-313 535.16) rotate(-50.11)"/><ellipse class="cls-2" cx="418.52" cy="599.8" rx="10.68" ry="14.41" transform="translate(-310.1 536.24) rotate(-50.11)"/><ellipse class="cls-2" cx="420.64" cy="597.56" rx="10.68" ry="14.41" transform="translate(-307.61 537.06) rotate(-50.11)"/><ellipse class="cls-2" cx="422.87" cy="595.85" rx="10.68" ry="14.41" transform="translate(-305.51 538.15) rotate(-50.11)"/></g><ellipse class="cls-2" cx="298.1" cy="537.97" rx="7.84" ry="11.36" transform="translate(-286.39 346.54) rotate(-42.87)"/><g class="cls-10"><ellipse class="cls-2" cx="299.93" cy="535.95" rx="7.84" ry="11.36" transform="translate(-284.53 347.24) rotate(-42.87)"/><ellipse class="cls-2" cx="301.76" cy="534.65" rx="7.84" ry="11.36" transform="translate(-283.16 348.14) rotate(-42.87)"/><ellipse class="cls-2" cx="303.44" cy="532.51" rx="7.84" ry="11.36" transform="translate(-281.25 348.71) rotate(-42.87)"/><ellipse class="cls-2" cx="305.59" cy="530.9" rx="7.84" ry="11.36" transform="translate(-279.58 349.74) rotate(-42.87)"/><ellipse class="cls-2" cx="307.34" cy="529.47" rx="7.84" ry="11.36" transform="translate(-278.14 350.56) rotate(-42.87)"/><ellipse class="cls-2" cx="309.14" cy="528.45" rx="7.84" ry="11.36" transform="translate(-276.97 351.51) rotate(-42.87)"/></g><ellipse class="cls-2" cx="270.3" cy="484.63" rx="8.39" ry="13" transform="matrix(0.01, -1, 1, 0.01, -216.93, 750.21)"/><g class="cls-11"><ellipse class="cls-2" cx="270.54" cy="487.53" rx="8.39" ry="13" transform="translate(-219.59 753.33) rotate(-89.44)"/><ellipse class="cls-2" cx="270.18" cy="489.91" rx="8.39" ry="13" transform="translate(-222.33 755.32) rotate(-89.44)"/><ellipse class="cls-2" cx="270.64" cy="492.8" rx="8.39" ry="13" transform="translate(-224.76 758.64) rotate(-89.44)"/><ellipse class="cls-2" cx="270.3" cy="495.65" rx="8.39" ry="13" transform="translate(-227.96 761.12) rotate(-89.44)"/><ellipse class="cls-2" cx="270.1" cy="498.07" rx="8.39" ry="13" transform="matrix(0.01, -1, 1, 0.01, -230.57, 763.32)"/><ellipse class="cls-2" cx="269.53" cy="500.21" rx="8.39" ry="13" transform="translate(-233.28 764.87) rotate(-89.44)"/></g><ellipse class="cls-2" cx="398.49" cy="530.57" rx="8.39" ry="13.7" transform="translate(-135.92 923.88) rotate(-89.44)"/><g class="cls-12"><ellipse class="cls-2" cx="398.75" cy="533.47" rx="8.39" ry="13.7" transform="translate(-138.57 927.02) rotate(-89.44)"/><ellipse class="cls-2" cx="398.37" cy="535.85" rx="8.39" ry="13.7" transform="translate(-141.33 928.99) rotate(-89.44)"/><ellipse class="cls-2" cx="398.86" cy="538.74" rx="8.39" ry="13.7" transform="translate(-143.73 932.34) rotate(-89.44)"/><ellipse class="cls-2" cx="398.49" cy="541.59" rx="8.39" ry="13.7" transform="translate(-146.94 934.8) rotate(-89.44)"/><ellipse class="cls-2" cx="398.29" cy="544.01" rx="8.39" ry="13.7" transform="translate(-149.56 936.99) rotate(-89.44)"/><ellipse class="cls-2" cx="397.69" cy="546.15" rx="8.39" ry="13.7" transform="translate(-152.3 938.51) rotate(-89.44)"/></g><ellipse class="cls-2" cx="328.37" cy="429.6" rx="7.17" ry="12.59" transform="matrix(0.01, -1, 1, 0.01, -104.39, 753.78)"/><g class="cls-13"><ellipse class="cls-2" cx="328.61" cy="432.08" rx="7.17" ry="12.59" transform="matrix(0.01, -1, 1, 0.01, -106.64, 756.48)"/><ellipse class="cls-2" cx="328.26" cy="434.12" rx="7.17" ry="12.59" transform="translate(-109.02 758.15) rotate(-89.44)"/><ellipse class="cls-2" cx="328.71" cy="436.58" rx="7.17" ry="12.59" transform="matrix(0.01, -1, 1, 0.01, -111.04, 761.04)"/><ellipse class="cls-2" cx="328.38" cy="439.03" rx="7.17" ry="12.59" transform="translate(-113.81 763.12) rotate(-89.44)"/><ellipse class="cls-2" cx="328.19" cy="441.09" rx="7.17" ry="12.59" transform="matrix(0.01, -1, 1, 0.01, -116.07, 764.99)"/><ellipse class="cls-2" cx="327.64" cy="442.93" rx="7.17" ry="12.59" transform="matrix(0.01, -1, 1, 0.01, -118.45, 766.25)"/></g><ellipse class="cls-2" cx="378.72" cy="382.03" rx="6.17" ry="11.34" transform="translate(-37.35 723) rotate(-84.58)"/><g class="cls-14"><ellipse class="cls-2" cx="378.76" cy="384.18" rx="6.17" ry="11.34" transform="translate(-39.46 724.98) rotate(-84.58)"/><ellipse class="cls-2" cx="378.3" cy="385.9" rx="6.17" ry="11.34" transform="translate(-41.59 726.08) rotate(-84.58)"/><ellipse class="cls-2" cx="378.52" cy="388.05" rx="6.17" ry="11.34" transform="matrix(0.09, -1, 1, 0.09, -43.52, 728.25)"/><ellipse class="cls-2" cx="378.05" cy="390.11" rx="6.17" ry="11.34" transform="translate(-46.01 729.65) rotate(-84.58)"/><ellipse class="cls-2" cx="377.73" cy="391.87" rx="6.17" ry="11.34" transform="translate(-48.05 730.93) rotate(-84.58)"/><ellipse class="cls-2" cx="377.1" cy="393.4" rx="6.17" ry="11.34" transform="translate(-50.14 731.68) rotate(-84.58)"/></g><g class="cls-15"><ellipse class="cls-2" cx="426.57" cy="337.91" rx="6.17" ry="10.4" transform="matrix(0.09, -1, 1, 0.09, 49.91, 730.68)"/><ellipse class="cls-2" cx="426.59" cy="340.06" rx="6.17" ry="10.4" transform="translate(47.78 732.64) rotate(-84.58)"/><ellipse class="cls-2" cx="426.15" cy="341.78" rx="6.17" ry="10.4" transform="translate(45.67 733.76) rotate(-84.58)"/><ellipse class="cls-2" cx="426.34" cy="343.92" rx="6.17" ry="10.4" transform="matrix(0.09, -1, 1, 0.09, 43.71, 735.89)"/><ellipse class="cls-2" cx="425.89" cy="345.99" rx="6.17" ry="10.4" transform="translate(41.24 737.32) rotate(-84.58)"/><ellipse class="cls-2" cx="425.58" cy="347.75" rx="6.17" ry="10.4" transform="translate(39.21 738.61) rotate(-84.58)"/><ellipse class="cls-2" cx="424.99" cy="349.29" rx="6.17" ry="10.4" transform="translate(37.15 739.41) rotate(-84.58)"/></g><ellipse class="cls-2" cx="426.64" cy="337.13" rx="5.39" ry="10.4" transform="translate(50.75 730.05) rotate(-84.58)"/><g class="cls-16"><ellipse class="cls-2" cx="463.74" cy="301.2" rx="6.17" ry="10.4" transform="matrix(0.09, -1, 1, 0.09, 120.1, 734.44)"/><ellipse class="cls-2" cx="463.75" cy="303.35" rx="6.17" ry="10.4" transform="translate(117.98 736.4) rotate(-84.58)"/><ellipse class="cls-2" cx="463.31" cy="305.07" rx="6.17" ry="10.4" transform="translate(115.87 737.52) rotate(-84.58)"/><ellipse class="cls-2" cx="463.51" cy="307.22" rx="6.17" ry="10.4" transform="translate(113.91 739.66) rotate(-84.58)"/><ellipse class="cls-2" cx="463.05" cy="309.29" rx="6.17" ry="10.4" transform="translate(111.44 741.08) rotate(-84.58)"/><ellipse class="cls-2" cx="462.75" cy="311.05" rx="6.17" ry="10.4" transform="translate(109.41 742.37) rotate(-84.58)"/><ellipse class="cls-2" cx="462.16" cy="312.58" rx="6.17" ry="10.4" transform="translate(107.35 743.17) rotate(-84.58)"/><ellipse class="cls-1" cx="463.81" cy="300.43" rx="5.39" ry="10.4" transform="matrix(0.09, -1, 1, 0.09, 120.94, 733.81)"/></g><ellipse class="cls-2" cx="464.52" cy="300.93" rx="4.96" ry="9.65" transform="translate(121.08 734.97) rotate(-84.58)"/><g class="cls-17"><ellipse class="cls-2" cx="497.43" cy="272.7" rx="6.17" ry="10.4" transform="translate(179 742.16) rotate(-84.58)"/><ellipse class="cls-2" cx="496.99" cy="274.42" rx="6.17" ry="10.4" transform="translate(176.89 743.29) rotate(-84.58)"/><ellipse class="cls-2" cx="497.19" cy="276.56" rx="6.17" ry="10.4" transform="translate(174.93 745.42) rotate(-84.58)"/><ellipse class="cls-2" cx="496.73" cy="278.63" rx="6.17" ry="10.4" transform="translate(172.45 746.85) rotate(-84.58)"/><ellipse class="cls-2" cx="496.43" cy="280.39" rx="6.17" ry="10.4" transform="translate(170.43 748.14) rotate(-84.58)"/><ellipse class="cls-2" cx="495.84" cy="281.93" rx="6.17" ry="10.4" transform="translate(168.37 748.94) rotate(-84.58)"/><ellipse class="cls-1" cx="498.2" cy="270.27" rx="4.96" ry="9.65" transform="translate(182.1 740.74) rotate(-84.58)"/></g><ellipse class="cls-2" cx="498.97" cy="269.41" rx="4.03" ry="8.96" transform="translate(206.81 755.42) rotate(-87.35)"/><ellipse class="cls-2" cx="498.97" cy="269.41" rx="4.03" ry="8.96" transform="translate(206.81 755.42) rotate(-87.35)"/><g class="cls-18"><ellipse class="cls-2" cx="595.64" cy="297.35" rx="6.17" ry="10.4" transform="translate(220.15 847.09) rotate(-82.2)"/><ellipse class="cls-2" cx="595.13" cy="299.05" rx="6.17" ry="10.4" transform="translate(218.03 848.06) rotate(-82.2)"/><ellipse class="cls-2" cx="595.23" cy="301.21" rx="6.17" ry="10.4" transform="translate(215.98 850.02) rotate(-82.2)"/><ellipse class="cls-2" cx="594.69" cy="303.26" rx="6.17" ry="10.4" transform="translate(213.49 851.25) rotate(-82.2)"/><ellipse class="cls-2" cx="594.31" cy="305" rx="6.17" ry="10.4" transform="translate(211.43 852.39) rotate(-82.2)"/><ellipse class="cls-2" cx="593.66" cy="306.51" rx="6.17" ry="10.4" transform="translate(209.37 853.05) rotate(-82.2)"/><ellipse class="cls-1" cx="596.5" cy="294.96" rx="4.96" ry="9.65" transform="translate(223.26 845.89) rotate(-82.2)"/></g><ellipse class="cls-2" cx="597.31" cy="294.14" rx="4.03" ry="8.96" transform="translate(251.89 863.33) rotate(-84.97)"/><ellipse class="cls-2" cx="597.31" cy="294.14" rx="4.03" ry="8.96" transform="translate(251.89 863.33) rotate(-84.97)"/><path class="cls-2" d="M341.81,502.23c8.68,0,15.83,4,16.77,9.1a6.31,6.31,0,0,0,.11-1.15c0-5.66-7.56-10.25-16.88-10.25s-16.87,4.59-16.87,10.25a6.31,6.31,0,0,0,.11,1.15C326,506.21,333.13,502.23,341.81,502.23Z"/><ellipse class="cls-2" cx="341.81" cy="510.18" rx="16.88" ry="10.25"/><path class="cls-2" d="M554.93,278c-6.54-.89-12.17.77-12.57,3.71a2.5,2.5,0,0,0,.08,1.05c2-1.7,6.46-2.49,11.41-1.81,5.77.79,10.31,3.3,11,5.9a3,3,0,0,0,1.15-1.89C566.45,282,561.47,278.86,554.93,278Z"/><ellipse class="cls-2" cx="554.2" cy="283.29" rx="5.38" ry="11.95" transform="translate(198.27 793.89) rotate(-82.2)"/><ellipse class="cls-2" cx="109.54" cy="228.9" rx="11.53" ry="16.39" transform="translate(-45.13 27.72) rotate(-11.98)"/><ellipse class="cls-2" cx="108.21" cy="229.08" rx="10.19" ry="14.37" transform="translate(-45.2 27.45) rotate(-11.98)"/><ellipse class="cls-2" cx="155.36" cy="364.33" rx="10.8" ry="15.43" transform="translate(-8.96 3.95) rotate(-1.42)"/><ellipse class="cls-2" cx="154.1" cy="364.26" rx="9.55" ry="13.52" transform="translate(-8.96 3.92) rotate(-1.42)"/><ellipse class="cls-2" cx="221.52" cy="318.51" rx="9.56" ry="14.59" transform="translate(-7.81 5.58) rotate(-1.42)"/><ellipse class="cls-2" cx="220.41" cy="318.44" rx="8.45" ry="12.78" transform="translate(-7.81 5.55) rotate(-1.42)"/><ellipse class="cls-2" cx="278.82" cy="278.65" rx="8.25" ry="13.1" transform="translate(-6.81 6.98) rotate(-1.42)"/><ellipse class="cls-2" cx="277.86" cy="278.59" rx="7.3" ry="11.48" transform="translate(-6.8 6.96) rotate(-1.42)"/><ellipse class="cls-2" cx="333.33" cy="240.93" rx="7.25" ry="12.24" transform="translate(-5.86 8.32) rotate(-1.42)"/><ellipse class="cls-2" cx="332.48" cy="240.87" rx="6.41" ry="10.72" transform="translate(-5.86 8.3) rotate(-1.42)"/><ellipse class="cls-2" cx="377.35" cy="210.77" rx="6.51" ry="11.52" transform="translate(-5.1 9.4) rotate(-1.42)"/><ellipse class="cls-2" cx="376.59" cy="210.71" rx="5.75" ry="10.1" transform="translate(-5.1 9.38) rotate(-1.42)"/><ellipse class="cls-2" cx="416.01" cy="183.69" rx="6.27" ry="11.48" transform="translate(-20.15 54.97) rotate(-7.38)"/><ellipse class="cls-2" cx="415.28" cy="183.7" rx="5.55" ry="10.06" transform="translate(-20.16 54.87) rotate(-7.38)"/><ellipse class="cls-2" cx="392.15" cy="82.22" rx="5.81" ry="11.57" transform="translate(-7.31 51.06) rotate(-7.38)"/><ellipse class="cls-2" cx="391.47" cy="82.23" rx="5.14" ry="10.14" transform="matrix(0.99, -0.13, 0.13, 0.99, -7.32, 50.98)"/><ellipse class="cls-2" cx="402.06" cy="126.35" rx="5.57" ry="9.48" transform="translate(-9.37 35.01) rotate(-4.93)"/><path class="cls-2" d="M386.56,503.93s6.5,1.5,10.75-2.5l173-200s1.5-1.75-2.5-3.25l-28.25-7.5s-.5-1.5-5.25,1l-110.75,69.5s-8.75,9-14,18.5l-58.25,103s-3.5,6.5,1.5,8.75l4.83,1.79Z"/><line class="cls-2" x1="357.64" y1="493.22" x2="420.81" y2="392.68"/><path class="cls-2" d="M437.12,381.13c-3.86-6.67-10.75-9.91-15.5-7.34,4.54-.94,10.18,2.26,13.52,8,3.9,6.76,3.21,14.46-1.55,17.21l-.18.08a7,7,0,0,0,2.15-.8C440.32,395.59,441,387.88,437.12,381.13Z"/><ellipse class="cls-2" cx="428.5" cy="386.1" rx="9.95" ry="14.12" transform="translate(-135.64 265.98) rotate(-30)"/><path class="cls-2" d="M430.7,374.51,526.06,307s4-2.5,7.5-.16l6.34,5.5a6.25,6.25,0,0,1-.67,7.66L383.36,502.74"/><path class="cls-2" d="M537.25,290.44s-2.19,10.91,5,14.74c0,0,7.33,4.5,14.67,2.17l13.68-6.85"/><line class="cls-2" x1="530.74" y1="305.88" x2="538.06" y2="300.47"/><line class="cls-2" x1="537.39" y1="322.17" x2="556.9" y2="307.35"/></g></g></svg>