<?xml version="1.0" encoding="utf-8"?>
<!-- Generator: Adobe Illustrator 23.0.3, SVG Export Plug-In . SVG Version: 6.00 Build 0)  -->
<svg version="1.1" id="圖層_1" xmlns="http://www.w3.org/2000/svg" xmlns:xlink="http://www.w3.org/1999/xlink" x="0px" y="0px"
	 viewBox="0 0 32.8 21.9" style="enable-background:new 0 0 32.8 21.9;" xml:space="preserve">
<style type="text/css">
	.st0{fill:#31469B;stroke:#31469B;stroke-width:0.5;stroke-miterlimit:10;}
	.st1{fill:#D80027;}
	.st2{fill:#FFDA44;}
	.st3{fill:#F0F0F0;}
	.st4{fill:#0052B4;}
</style>
<title>lang</title>
<g>
	<g id="Layer_1">
		<path class="st0" d="M73.8-25.9h1.6c8.9-0.3,15.9-7.8,15.6-16.8c-0.3-8.5-7.1-15.3-15.6-15.6h-1.6c-8.9,0.4-15.8,8.1-15.4,17
			C58.8-33,65.4-26.4,73.8-25.9z M64-31.6c1-0.8,2.1-1.4,3.3-1.9c1.1,2.3,2.7,4.4,4.6,6.1C68.9-28,66.1-29.5,64-31.6z M74-27.3
			c-2.4-1.8-4.3-4.1-5.5-6.7c1.8-0.6,3.6-1,5.5-1.1V-27.3z M74-36.3c-2.1,0.1-4.1,0.5-6.1,1.2c-0.7-1.9-1.2-3.8-1.3-5.8H74V-36.3z
			 M74-42.2h-7.3c0-2,0.3-4.1,1-6c2,0.8,4.2,1.3,6.4,1.3L74-42.2z M77.2-27.4c2-1.8,3.6-4,4.8-6.4c1.3,0.5,2.5,1.2,3.6,1.9
			C83.3-29.5,80.4-27.9,77.2-27.4z M86.3-32.8c-1.2-0.9-2.5-1.6-3.9-2.1c0.7-1.9,1.2-3.9,1.3-6h5.8C89.3-38,88.2-35.1,86.3-32.8
			L86.3-32.8z M86.8-50.8c1.8,2.5,2.8,5.5,2.8,8.6h-5.9c0-2.1-0.3-4.2-1-6.2C84.2-49.1,85.5-49.9,86.8-50.8L86.8-50.8z M86-51.8
			c-1.2,0.9-2.4,1.6-3.8,2.1c-1.1-2.8-2.9-5.2-5.1-7.2C80.6-56.3,83.7-54.5,86-51.8L86-51.8z M75.3-56.8c2.6,2,4.6,4.6,5.8,7.6
			c-1.9,0.7-3.8,1-5.8,1.1V-56.8z M75.3-46.8c2.1-0.1,4.3-0.4,6.3-1.2c0.6,1.9,0.9,3.8,0.9,5.8h-7.3L75.3-46.8z M75.3-40.9h7.2
			c-0.1,1.9-0.5,3.8-1.2,5.6c-1.9-0.6-4-1-6-1L75.3-40.9z M75.3-35.1c1.9,0,3.7,0.4,5.5,0.9c-1.3,2.7-3.1,5-5.5,6.8V-35.1z M74-56.9
			v8.8c-2-0.1-4-0.5-5.9-1.3C69.3-52.4,71.4-55,74-56.9z M71.9-56.8c-2.2,1.9-3.9,4.3-5,7c-1.2-0.6-2.4-1.3-3.5-2.2
			C65.7-54.5,68.6-56.2,71.9-56.8z M62.7-51.1c1.2,0.9,2.5,1.7,3.8,2.4c-0.7,2.1-1.1,4.3-1.1,6.5h-5.7
			C59.7-45.4,60.7-48.5,62.7-51.1z M59.7-41h5.7c0.1,2.2,0.6,4.3,1.4,6.3c-1.3,0.6-2.5,1.3-3.6,2.1C61.2-34.9,60-37.9,59.7-41z"/>
	</g>
</g>
<g>
	<rect x="-8.3" y="-55.1" class="st1" width="32.8" height="21.8"/>
	<g>
		<polygon class="st2" points="-2.4,-52.2 -1.4,-49.3 1.6,-49.3 -0.9,-47.5 0.1,-44.7 -2.4,-46.4 -4.8,-44.7 -3.9,-47.5 -6.3,-49.3 
			-3.3,-49.3 		"/>
		<polygon class="st2" points="3.5,-42.6 2.6,-43.3 1.7,-42.6 2.1,-43.7 1.1,-44.4 2.3,-44.4 2.6,-45.4 3,-44.4 4.1,-44.4 
			3.2,-43.7 		"/>
		<polygon class="st2" points="5.9,-45.9 4.8,-45.9 4.5,-44.8 4.1,-45.9 3,-45.9 3.9,-46.6 3.5,-47.7 4.5,-47 5.4,-47.7 5,-46.6 		
			"/>
		<polygon class="st2" points="5.9,-50 5,-49.3 5.4,-48.2 4.5,-48.9 3.5,-48.2 3.9,-49.3 3,-50 4.1,-50 4.5,-51.1 4.8,-50 		"/>
		<polygon class="st2" points="3.5,-53.3 3.2,-52.2 4.1,-51.6 3,-51.6 2.6,-50.5 2.3,-51.6 1.1,-51.6 2.1,-52.2 1.7,-53.3 
			2.6,-52.6 		"/>
	</g>
</g>
<g>
	<rect x="-44" y="-55.2" class="st3" width="32.8" height="21.8"/>
	<circle class="st1" cx="-27.6" cy="-44.3" r="6.1"/>
</g>
<g>
	<rect x="-8.7" y="-80.2" class="st1" width="32.9" height="21.9"/>
	<rect x="-8.7" y="-80.2" class="st4" width="16.4" height="11"/>
	<polygon class="st3" points="3.3,-74.7 1.7,-74 2.5,-72.5 0.9,-72.8 0.7,-71.1 -0.5,-72.3 -1.7,-71.1 -1.9,-72.8 -3.5,-72.5 
		-2.7,-74 -4.2,-74.7 -2.7,-75.4 -3.5,-76.9 -1.9,-76.6 -1.7,-78.3 -0.5,-77 0.7,-78.3 0.9,-76.6 2.5,-76.9 1.7,-75.4 	"/>
	<circle class="st4" cx="-0.5" cy="-74.7" r="1.9"/>
	<path class="st3" d="M-0.5-73.4c-0.7,0-1.2-0.6-1.2-1.2c0-0.7,0.6-1.2,1.2-1.2c0.7,0,1.2,0.6,1.2,1.2C0.8-74,0.2-73.4-0.5-73.4z"/>
</g>
<g>
	<rect x="0.1" y="0.1" class="st3" width="32.6" height="21.8"/>
	<polygon class="st1" points="18.4,0.1 14.4,0.1 14.4,8.9 0.1,8.9 0.1,13 14.4,13 14.4,21.8 18.4,21.8 18.4,13 32.7,13 32.7,8.9 
		18.4,8.9 	"/>
	<g>
		<polygon class="st4" points="25.2,14.7 32.7,18.9 32.7,14.7 		"/>
		<polygon class="st4" points="19.9,14.7 32.7,21.8 32.7,19.8 23.6,14.7 		"/>
		<polygon class="st4" points="29.3,21.8 19.9,16.6 19.9,21.8 		"/>
	</g>
	<polygon class="st3" points="19.9,14.7 32.7,21.8 32.7,19.8 23.6,14.7 	"/>
	<polygon class="st1" points="19.9,14.7 32.7,21.8 32.7,19.8 23.6,14.7 	"/>
	<g>
		<polygon class="st4" points="5.8,14.7 0.1,17.9 0.1,14.7 		"/>
		<polygon class="st4" points="12.9,15.7 12.9,21.8 1.7,21.8 		"/>
	</g>
	<polygon class="st1" points="9.2,14.7 0.1,19.8 0.1,21.8 0.1,21.8 12.9,14.7 	"/>
	<g>
		<polygon class="st4" points="7.6,7.2 0.1,3 0.1,7.2 		"/>
		<polygon class="st4" points="12.9,7.2 0.1,0.1 0.1,2.1 9.2,7.2 		"/>
		<polygon class="st4" points="3.5,0.1 12.9,5.3 12.9,0.1 		"/>
	</g>
	<polygon class="st3" points="12.9,7.2 0.1,0.1 0.1,2.1 9.2,7.2 	"/>
	<polygon class="st1" points="12.9,7.2 0.1,0.1 0.1,2.1 9.2,7.2 	"/>
	<g>
		<polygon class="st4" points="27,7.2 32.7,4 32.7,7.2 		"/>
		<polygon class="st4" points="19.9,6.3 19.9,0.1 31.1,0.1 		"/>
	</g>
	<polygon class="st1" points="23.6,7.2 32.7,2.1 32.7,0.1 32.7,0.1 19.9,7.2 	"/>
</g>
</svg>
